<svg width="76" height="54" fill="none" xmlns="http://www.w3.org/2000/svg"><path d="M59.06 36.414l1.673 2.493s1.906 3.42 4.084 3.846c2.17.425 5.201-2.016 5.201-2.016l2.49-1.675c2.096-1.41 2.894-3.892 1.482-5.99-1.408-2.094-3.987-2.259-6.083-.849l-1.194.803-.814-1.211c-1.41-2.096-3.892-2.896-5.992-1.482-2.092 1.407-2.258 3.986-.847 6.081zM16.942 0a3.878 3.878 0 00-3.88 3.876v7.852H7.793v-7.85a3.878 3.878 0 00-7.753 0V33.85a3.876 3.876 0 007.753 0V18.73H11.1c1.085 0 1.963.88 1.963 1.964V33.85a3.882 3.882 0 003.88 3.878 3.88 3.88 0 003.876-3.878V3.876A3.876 3.876 0 0016.942 0zm53.1 8.305h2.082C74.266 8.305 76 6.94 76 4.798c0-2.139-1.734-3.502-3.876-3.502h-2.12c-5.388 0-9.774 4.257-9.774 9.648v13.15a3.877 3.877 0 107.755 0v-5.362h2.675c2.141 0 3.878-1.338 3.878-3.476 0-2.145-1.737-3.513-3.878-3.513h-2.675v-1.19c0-1.29.764-2.248 2.056-2.248zm-16.037 0h2.086c2.14 0 3.875-1.364 3.875-3.507 0-2.139-1.734-3.502-3.875-3.502h-2.123c-5.387 0-9.774 4.257-9.774 9.645v22.904a3.878 3.878 0 107.755 0V18.732h2.677c2.14 0 3.876-1.338 3.876-3.476 0-2.145-1.736-3.513-3.876-3.513h-2.677v-1.19c0-1.29.763-2.248 2.056-2.248zM32.46 9.603c-5.392 0-9.775 4.386-9.775 9.779v8.566c0 5.392 4.383 9.776 9.775 9.776 5.39 0 9.775-4.384 9.775-9.776v-8.566c0-5.393-4.386-9.779-9.775-9.779zm0 21.113a2.022 2.022 0 01-2.022-2.02V18.582a2.021 2.021 0 014.04 0v10.116a2.02 2.02 0 01-2.018 2.02z" fill="#E32124"/><path d="M1.93 50.695c.562 0 .973-.074 1.235-.22.26-.148.391-.385.391-.711 0-.308-.13-.527-.39-.657-.263-.13-.671-.196-1.226-.196h-.372v1.784h.362zm-.029-2.851c.51 0 .887-.064 1.132-.192.245-.127.367-.353.367-.681 0-.326-.124-.548-.372-.666-.248-.117-.585-.176-1.01-.176h-.45v1.715H1.9zM0 45.002h2.352c.823 0 1.466.138 1.93.412.463.274.695.721.695 1.342 0 .392-.117.725-.352 1-.235.274-.588.46-1.058.557v.021c.51.065.904.243 1.185.534.28.29.421.658.421 1.102 0 .457-.132.824-.396 1.102a2.21 2.21 0 01-1.024.593 5.135 5.135 0 01-1.391.176H0V45zM7.363 51.6a2.295 2.295 0 01-.974-.905c-.23-.392-.344-.856-.344-1.392 0-.522.12-.98.358-1.372a2.4 2.4 0 01.985-.906 3.077 3.077 0 011.41-.319c.249 0 .468.012.657.036.19.022.369.063.538.122l-.107 1.137a2.328 2.328 0 00-.862-.168c-.287 0-.536.062-.745.182a1.2 1.2 0 00-.48.514c-.111.223-.166.48-.166.774 0 .451.122.806.367 1.064s.596.386 1.053.386a2.052 2.052 0 00.892-.176l.059 1.166c-.203.065-.392.11-.569.137-.176.026-.375.04-.597.04-.562 0-1.054-.107-1.475-.32zm7.098-2.825c0-.365-.086-.639-.26-.819-.172-.178-.416-.269-.729-.269-.287 0-.534.095-.74.285-.205.19-.328.457-.367.803h2.096zm-2.248 2.875a2.335 2.335 0 01-1.009-.92c-.239-.402-.358-.88-.358-1.436 0-.515.111-.975.333-1.377a2.35 2.35 0 01.94-.935 2.847 2.847 0 011.392-.333c.758 0 1.338.227 1.74.68.401.454.602 1.136.602 2.044a3.328 3.328 0 01-.02.362h-3.458c.013.222.083.418.21.588.128.17.304.303.53.397.225.094.488.142.788.142.549 0 1.055-.13 1.519-.392l.029 1.156a2.87 2.87 0 01-.774.255 4.92 4.92 0 01-.95.088c-.575 0-1.08-.106-1.514-.32zm4.757-4.874h3.761v1.087h-2.234v3.978H16.97v-5.065zm7.73 3.948v-2.86h-1.451v.519c0 .483-.034.92-.102 1.313a3.117 3.117 0 01-.358 1.029h1.91zm-3.851 0h.43c.197-.314.342-.672.437-1.078a6.53 6.53 0 00.142-1.46v-1.41h4.37v3.948h.577v2.42h-1.331v-1.303H22.18v1.304h-1.33v-2.42zm9.606-.165c.213-.236.319-.576.319-1.02a5.26 5.26 0 00-.402-.02c-.497 0-.872.06-1.127.182-.255.12-.382.312-.382.573 0 .208.067.367.201.475.134.108.318.161.554.161.346 0 .625-.117.837-.351zm-2.219 1.184a1.493 1.493 0 01-.627-.553 1.541 1.541 0 01-.225-.838c0-.549.229-.965.686-1.249.457-.285 1.11-.427 1.959-.427.242 0 .484.01.725.03 0-.346-.095-.599-.285-.76-.189-.159-.473-.24-.851-.24a3.564 3.564 0 00-1.608.432l-.048-1.117c.254-.124.553-.216.896-.278a5.608 5.608 0 011.004-.094c1.555 0 2.332.702 2.332 2.106 0 .236-.003.421-.01.558l-.01.716c0 .83.023 1.434.07 1.812H30.9a1.91 1.91 0 01-.03-.401l.02-.441h-.02c-.17.294-.401.523-.695.691-.294.166-.64.25-1.038.25a2.02 2.02 0 01-.902-.197zm8.842-.143a2.29 2.29 0 01-.975-.905c-.229-.392-.343-.856-.343-1.392 0-.522.119-.98.358-1.372.238-.391.566-.694.984-.906a3.076 3.076 0 011.411-.319c.249 0 .468.012.657.036.189.022.369.063.538.122l-.107 1.137a2.332 2.332 0 00-.862-.168c-.288 0-.537.062-.745.182-.21.12-.37.293-.48.514-.111.223-.167.48-.167.774 0 .451.123.806.368 1.064s.595.386 1.053.386a2.055 2.055 0 00.892-.176l.058 1.166c-.202.065-.392.11-.568.137-.176.026-.375.04-.597.04-.562 0-1.054-.107-1.475-.32zm8.715-.71c.306 0 .531-.051.675-.156.144-.104.216-.262.216-.47 0-.196-.072-.34-.216-.431-.144-.091-.375-.137-.696-.137h-.802v1.194h.823zm-.089-2.125c.282 0 .488-.04.622-.123.134-.081.2-.223.2-.425 0-.21-.07-.353-.21-.432-.14-.079-.36-.117-.66-.117h-.686v1.097h.734zm-2.243-1.989h2.801c.51 0 .937.095 1.284.284.347.19.52.51.52.96 0 .32-.09.578-.265.774-.176.196-.428.33-.754.402v.01c.346.065.623.2.833.407.208.206.313.47.313.797 0 .556-.19.934-.574 1.133-.38.199-.886.298-1.512.298H43.46v-5.065zm8.576 3.783c.214-.236.32-.576.32-1.02a5.253 5.253 0 00-.402-.02c-.497 0-.872.06-1.127.182-.254.12-.383.312-.383.573 0 .208.069.367.203.475.133.108.318.161.553.161.346 0 .625-.117.836-.351zm-2.218 1.184a1.5 1.5 0 01-.628-.553 1.546 1.546 0 01-.225-.838c0-.549.23-.965.686-1.249.457-.285 1.11-.427 1.96-.427.24 0 .484.01.725.03 0-.346-.095-.599-.284-.76-.19-.159-.474-.24-.852-.24-.262 0-.536.04-.824.118a3.532 3.532 0 00-.783.314l-.049-1.117c.255-.124.553-.216.897-.278a5.591 5.591 0 011.003-.094c1.555 0 2.332.702 2.332 2.106 0 .236-.003.421-.01.558l-.01.716c0 .83.024 1.434.069 1.812h-1.342a1.872 1.872 0 01-.03-.401l.02-.441h-.02c-.17.294-.4.523-.694.691a2.08 2.08 0 01-1.04.25c-.333 0-.633-.066-.9-.197zm5.261-4.967h2.214l1.137 3.684 1.126-3.684h2.185v5.065H60.35v-1.95c0-.613.02-1.326.06-2.135h-.02l-1.313 4.085h-1.351l-1.294-4.085h-.02c.04.875.06 1.613.06 2.214v1.87H55.08v-5.064zm8.074 0h1.508v1.293c0 .34-.008.673-.025.999-.016.328-.034.64-.053.94h.02l2.086-3.232h1.568v5.065H66.75v-1.313c0-.62.019-1.247.058-1.881h-.02l-2.077 3.194h-1.557v-5.065z" fill="#1D1D1E"/></svg>