<svg xmlns="http://www.w3.org/2000/svg" viewBox="0 0 492.8 144.11"><defs><style>.cls-1,.cls-2,.cls-3{stroke:#000;}.cls-1,.cls-2,.cls-3,.cls-6,.cls-7,.cls-9{stroke-miterlimit:10;}.cls-2,.cls-3{fill:none;}.cls-3{stroke-width:4px;}.cls-4{fill:#f01926;}.cls-5{fill:#666;}.cls-6,.cls-7,.cls-8,.cls-9{fill:#838bc5;}.cls-6,.cls-7,.cls-9{stroke:#838bc5;}.cls-6{stroke-width:3px;}.cls-7{stroke-width:2px;}</style></defs><title>Лого</title><g id="Engine"><polygon class="cls-1" points="154.22 26.91 199.04 26.91 199.04 35.91 175.28 35.91 175.28 44.19 199.04 44.19 199.04 52.29 175.46 52.29 175.28 59.85 199.04 59.85 199.04 68.85 154.22 68.85 154.22 26.91"/><polygon class="cls-1" points="205.16 26.91 224.78 26.91 249.62 41.13 249.62 26.91 265.82 26.91 265.82 68.85 249.62 68.85 249.62 58.95 221.9 44.73 221.9 68.85 205.16 68.85 205.16 26.91"/><path class="cls-1" d="M584.62,403.75v18.09l-9.06,7.08H533.8L525,422V394.72l9.12-7.5h44.46v9.18h-29.7s-1.44-.54-1.44,1.44v21.42s.3,1,1.14,1h12.3s1.32-.24,1.32-1.32V412.6h-8.46v-8.82l30.9,0" transform="translate(-252.8 -360.31)"/><path class="cls-2" d="M560.74,403.76" transform="translate(-252.8 -360.31)"/><rect class="cls-1" x="341.15" y="26.91" width="22.23" height="42.12"/><polygon class="cls-1" points="373.37 26.91 393.44 26.91 417.2 40.77 417.2 26.91 434.03 26.91 434.03 68.31 417.83 68.31 417.83 59.76 390.02 44.28 390.02 68.67 373.37 68.67 373.37 26.91"/><polygon class="cls-1" points="440.33 26.91 486.59 26.91 486.59 36.18 462.56 36.18 462.56 43.56 486.59 43.83 486.59 52.47 462.74 52.47 462.74 59.85 486.59 59.85 486.59 68.67 440.33 68.67 440.33 26.91"/></g><g id="Group"><path class="cls-1" d="M465.64,456h-44.4l-8.76,7v27.36l9,6.6h41.76l8.76-6.84V472.24H441.64l-.12,9h8.16v6.24s-.09,1.37-1.37,1.37H436.9a1.53,1.53,0,0,1-1.63-1.63v-21s.09-1.56,1.56-1.56h28.81Z" transform="translate(-252.8 -360.31)"/><path class="cls-1" d="M528.16,483.88l9.36-7.38V462.88L528.64,456H478.48v41.28L500.8,497V483.52L518,497H543Zm-13.32-10.56a1.29,1.29,0,0,1-1.32,1.32H500.8V464.8h12.6s1.44,0,1.44,1.08Z" transform="translate(-252.8 -360.31)"/><path class="cls-1" d="M601,456H559l-9.45,6.78v27.45l9,7.05h42.3l8.64-6.87V463.27Zm-13.86,31.17a1.67,1.67,0,0,1-1.71,1.71H573.61a1.28,1.28,0,0,1-1.31-1.31V466.06s.05-1.26,1.67-1.26h11.79a1.28,1.28,0,0,1,1.35,1.44Z" transform="translate(-252.8 -360.31)"/><path class="cls-1" d="M616.63,456H639v31.53a1.12,1.12,0,0,0,1.21,1.22h12.29s1.55-.27,1.55-1.56V456h22.39v34.5l-8.64,6.78H625.36l-8.73-7.05Z" transform="translate(-252.8 -360.31)"/><path class="cls-1" d="M733.27,456H683.32v41.28h22.77V483.16h27.09l8.55-7V463.27Zm-13.86,17.49a1.79,1.79,0,0,1-1.8,1h-12V465h12.42s1.35.09,1.35,1.35Z" transform="translate(-252.8 -360.31)"/></g><g id="Линия"><line class="cls-3" x1="154.22" y1="74.07" x2="488.93" y2="74.07"/><line class="cls-3" x1="156.56" y1="142.11" x2="492.8" y2="142.11"/></g><g id="Слой_5" data-name="Слой 5"><path class="cls-4" d="M593.81,360.31h23.94a2,2,0,0,1,.72,2.84c-.94,2-11.2,17.32-11.2,17.32s-1.8,2.34-3.29,0-11-17-11-17S591.47,360.31,593.81,360.31Z" transform="translate(-252.8 -360.31)"/></g><g id="Шестерня"><path class="cls-5" d="M375.54,489.18c2-3.85,19.82-39.37,10.68-68.84-4.11-13.24-13-23.46-26.56-30.38l-1.09-8.9h3.88l.71,10.23,8.13,5,10.84-5,8.95,8.94L387,410.81l4.35,9.85h9.61v17.19l-5.87,6.84-.5,11.52,6.31,7.5-5.13,15.84-9.3,4.18-6,10.15Z" transform="translate(-252.8 -360.31)"/><path class="cls-5" d="M362,381.56l.65,9.44c-.82-.47-1.66-.93-2.51-1.37l-1-8.07H362m20,10.28,8.46,8.47-3.9,10.13-.15.39.17.37,4.14,9.36.26.6h9.43v16.51l-5.64,6.56-.22.26,0,.35L394.08,456l0,.39.25.29,6,7.14-5,15.37-9,4-.29.13-.16.27-5.6,9.48-4.18-4a134.72,134.72,0,0,0,8.76-22.21c3.61-12.27,6.85-30.32,1.78-46.67a48.73,48.73,0,0,0-16.22-23.86l.32.19.45.28.49-.22L382,391.84m-19.11-11.28H358l1.2,9.72c54.6,27.72,15.72,99,15.72,99l5.64,5.4,6.24-10.56,9.36-4.2,5.28-16.32L395.08,456l.48-11.16,5.88-6.84V420.16h-9.78l-4.14-9.36,4.14-10.74-9.42-9.42-10.92,5L363.64,391l-.72-10.44Z" transform="translate(-252.8 -360.31)"/><path class="cls-5" d="M384.05,427.28c-2.74-7.28-9.3-20-23-26l-.78-7C363.83,395.53,379.9,402.33,384.05,427.28Z" transform="translate(-252.8 -360.31)"/><path class="cls-5" d="M360.85,395.05c4.22,1.63,16.81,8,21.7,27.47-3.49-7.27-9.92-16.65-21-21.59l-.66-5.88m-1.17-1.44.9,8c19.89,8.46,24.66,31.14,24.66,31.14-2.88-33.6-25.56-39.15-25.56-39.15Z" transform="translate(-252.8 -360.31)"/></g><g id="Дома"><path class="cls-6" d="M340.24,381.94" transform="translate(-252.8 -360.31)"/><path class="cls-7" d="M343,380.56" transform="translate(-252.8 -360.31)"/><polygon class="cls-8" points="72.01 143.05 72.01 141.98 84.35 141.98 84.16 128.82 95.49 118.16 95.49 137.48 105.75 137.4 105.75 141.62 115.65 141.62 115.65 143.05 72.01 143.05"/><path class="cls-8" d="M347.79,479.63V498.3h1l9.25-.08v4.22H368v.43H325.31v-.07h12.34v-1l-.17-12.43,10.32-9.72m1-2.32-12.33,11.61.18,12.87H324.31v2.07H369v-2.43h-9.9V497.2l-10.26.09v-20Z" transform="translate(-252.8 -360.31)"/><polygon class="cls-8" points="83.85 31.13 74.83 35.45 74.83 85.64 72.81 85.64 72.81 33.46 84.22 28.32 95.95 31.72 95.95 101.26 100.41 101.26 100.41 57.34 103.88 57.34 113.11 60.63 113.11 91.88 110.37 91.88 110.37 69.86 102.78 67.8 103.39 108.8 95.71 108.8 95.71 111.42 83.85 117.87 83.85 31.13"/><path class="cls-8" d="M337,388.89l11.46,3.33v69.6h5V417.9h3.13l9.07,3.21v30.83h-2.24V430l-.37-.1L356,428l-.64-.18v.67l.59,40.41h-7.67v2.72l-11.36,6.18V391.05l-.72.34-8.52,4.08-.28.14V445.7h-1.52V393.93l11.18-5m0-.53-11.64,5.25V446.2h2.52V395.92l8.52-4.08V478.6l12.36-6.72v-2.52h7.68l-.6-40.92,7.08,1.92v22.08h3.24V420.76l-9.48-3.36H353v43.92h-4V391.84l-12-3.48Z" transform="translate(-252.8 -360.31)"/><rect class="cls-8" x="72.01" y="106.25" width="2.75" height="32.48"/><path class="cls-8" d="M327.06,467.06v31.48h-1.75V467.06h1.75m1-1h-3.75v33.48h3.75V466.06Z" transform="translate(-252.8 -360.31)"/><polygon class="cls-8" points="32.32 143.05 32.32 134.87 33.12 134.87 33.12 141.17 66.34 141.17 66.34 126.59 69.12 126.59 69.12 143.05 32.32 143.05"/><path class="cls-8" d="M321.42,487.4v15.46h-35.8V502h34V487.4h1.78m1-1h-3.78V501H286.42v-6.3h-1.8v9.18h37.8V486.4Z" transform="translate(-252.8 -360.31)"/><polygon class="cls-9" points="20.3 143.55 20.3 112.77 15.26 112.77 15.26 125.01 0.5 125.01 0.5 142.11 4.1 142.11 4.1 127.35 16.16 127.35 16.16 143.55 20.3 143.55"/><polygon class="cls-8" points="38.48 136.62 38.44 101.42 33.8 101.42 33.8 129.24 31.33 129.24 31.33 119.52 29.44 119.52 29.44 97.3 19.8 101.97 19.8 109.03 17.56 109.03 17.56 101.73 28.89 95.63 33.48 95.63 33.48 96.44 41.81 96.44 41.89 136.62 38.48 136.62"/><path class="cls-8" d="M285.78,456.44v.81h8.33l.08,39.17h-2.41l0-34.19v-1H286.1v27.82h-1.47v-9.72h-1.89V456.81l-1.44.7-8.64,4.19-.56.27v6.87h-1.24v-6.5l10.95-5.9h4m1-1h-5.22l-11.7,6.3v8.1h3.24V462.6l8.64-4.19v21.92h1.89v9.72h3.47V462.23h3.64l.05,35.19h4.41l-.09-41.17h-8.33v-.81Z" transform="translate(-252.8 -360.31)"/><polygon class="cls-8" points="44.44 116.5 44.44 76.54 27.6 85.41 27.6 91.63 25.78 91.63 25.78 84.34 48.48 72.78 48.48 76.91 53.82 76.96 53.82 79.64 48.84 83.48 48.72 116.5 44.44 116.5"/><path class="cls-8" d="M300.78,433.91v3.8h1l4.35,0v1.94l-4.59,3.54-.39.3V444L301,476.31h-3.28V436l-1.47.78-15.84,8.34-.53.28v6h-.82V445l21.7-11m1-1.63-23.7,12.06v8.1h2.82V446l15.84-8.34v39.63H302l.12-33.27,5-3.84v-3.42l-5.34-.06v-4.44Z" transform="translate(-252.8 -360.31)"/><polygon class="cls-8" points="53.38 129.13 53.38 97.73 68.58 95.65 73.62 99.52 73.62 100.57 72.71 100.57 68.58 97.79 68.58 120.1 65.35 120.1 65.35 98.09 55.44 99.09 55.44 129.13 53.38 129.13"/><path class="cls-8" d="M321.24,456.49l4.68,3.58v.31h-.26l-3.22-2.17-1.56-1v22.75h-2.23V457.84l-1.1.12-8.91.9-.9.09v30h-1.06V458.47l14.56-2m.28-1.05-15.84,2.16v32.34h3.06V459.85l8.91-.9v22h4.23V459l3.48,2.34h1.56v-1.8l-5.4-4.14Z" transform="translate(-252.8 -360.31)"/></g></svg>